<?xml version="1.0" encoding="UTF-8"?>
<svg xmlns="http://www.w3.org/2000/svg" width="1500" height="900" viewBox="0 0 1500 900" role="img">
<defs>
<marker id="arrow" markerWidth="10" markerHeight="10" refX="9" refY="3" orient="auto" markerUnits="strokeWidth">
<path d="M0,0 L10,3 L0,6 z" fill="#555" />
</marker>
<filter id="shadow" x="-20%" y="-20%" width="140%" height="140%"><feDropShadow dx="0" dy="1" stdDeviation="1" flood-opacity="0.15"/></filter>
</defs>
<rect width="100%" height="100%" fill="#ffffff"/>
<path d="M 280.0 210.0 L 335.0 210.0 L 335.0 165.0 L 390.0 165.0" fill="none" stroke="#555" stroke-width="2" marker-end="url(#arrow)"/>
<text x="335.0" y="181.5" text-anchor="middle" font-family="Arial, Helvetica, sans-serif" font-size="12" fill="#333">grouped under Project</text>
<path d="M 280.0 210.0 L 380.0 210.0 L 380.0 245.0 L 480.0 245.0" fill="none" stroke="#555" stroke-width="2" marker-end="url(#arrow)"/>
<polygon points="60.0,40.0 282.0,40.0 300.0,58.0 300.0,110.0 60.0,110.0" fill="#fff2cc" stroke="#d6b656" stroke-width="2" filter="url(#shadow)"/>
<polyline points="282.0,40.0 282.0,58.0 300.0,58.0" fill="none" stroke="#d6b656" stroke-width="2"/>
<text x="180.0" y="80.0" text-anchor="middle" font-family="Arial, Helvetica, sans-serif" font-size="14" font-weight="400" fill="#111">Version 1 focus: Projects + Epics</text>
<rect x="100.0" y="180.0" width="180.0" height="60.0" rx="12" ry="12" fill="#dae8fc" stroke="#6c8ebf" stroke-width="2" filter="url(#shadow)"/>
<text x="190.0" y="215.0" text-anchor="middle" font-family="Arial, Helvetica, sans-serif" font-size="14" font-weight="700" fill="#111">Project timeline</text>
<rect x="390.0" y="140.0" width="170.0" height="50.0" rx="12" ry="12" fill="#d5e8d4" stroke="#82b366" stroke-width="2" filter="url(#shadow)"/>
<text x="475.0" y="170.0" text-anchor="middle" font-family="Arial, Helvetica, sans-serif" font-size="14" font-weight="400" fill="#111">Epic timeline</text>
<rect x="480.0" y="220.0" width="210.0" height="50.0" rx="12" ry="12" fill="#d5e8d4" stroke="#82b366" stroke-width="2" filter="url(#shadow)"/>
<text x="585.0" y="250.0" text-anchor="middle" font-family="Arial, Helvetica, sans-serif" font-size="14" font-weight="400" fill="#111">Epic timeline</text>
<rect x="70.0" y="340.0" width="920.0" height="190.0" rx="10" ry="10" fill="#fff" stroke="#666666" stroke-width="2"/>
<rect x="70.0" y="340.0" width="920.0" height="28.0" rx="10" ry="10" fill="#f5f5f5" stroke="#666666" stroke-width="2"/>
<line x1="70.0" y1="368.0" x2="990.0" y2="368.0" stroke="#666666" stroke-width="2"/>
<text x="530.0" y="359.0" text-anchor="middle" font-family="Arial, Helvetica, sans-serif" font-size="15" font-weight="700" fill="#111">Project A</text>
<rect x="210.0" y="370.0" width="620.0" height="28.0" rx="12" ry="12" fill="#dae8fc" stroke="#6c8ebf" stroke-width="2" filter="url(#shadow)"/>
<text x="520.0" y="389.0" text-anchor="middle" font-family="Arial, Helvetica, sans-serif" font-size="14" font-weight="400" fill="#111">Project bar</text>
<rect x="240.0" y="425.0" width="210.0" height="24.0" rx="12" ry="12" fill="#d5e8d4" stroke="#82b366" stroke-width="2" filter="url(#shadow)"/>
<text x="345.0" y="442.0" text-anchor="middle" font-family="Arial, Helvetica, sans-serif" font-size="14" font-weight="400" fill="#111">Epic 1</text>
<rect x="430.0" y="460.0" width="290.0" height="24.0" rx="12" ry="12" fill="#d5e8d4" stroke="#82b366" stroke-width="2" filter="url(#shadow)"/>
<text x="575.0" y="477.0" text-anchor="middle" font-family="Arial, Helvetica, sans-serif" font-size="14" font-weight="400" fill="#111">Epic 2</text>
</svg>
