<?xml version="1.0" encoding="UTF-8"?>
<svg xmlns="http://www.w3.org/2000/svg" width="1100" height="850" viewBox="0 0 1100 850" role="img">
<defs>
<marker id="arrow" markerWidth="10" markerHeight="10" refX="9" refY="3" orient="auto" markerUnits="strokeWidth">
<path d="M0,0 L10,3 L0,6 z" fill="#555" />
</marker>
<filter id="shadow" x="-20%" y="-20%" width="140%" height="140%"><feDropShadow dx="0" dy="1" stdDeviation="1" flood-opacity="0.15"/></filter>
</defs>
<rect width="100%" height="100%" fill="#ffffff"/>
<path d="M 270.0 75.0 L 335.0 75.0 L 335.0 190.0 L 400.0 190.0" fill="none" stroke="#555" stroke-width="2" marker-end="url(#arrow)"/>
<text x="335.0" y="126.5" text-anchor="middle" font-family="Arial, Helvetica, sans-serif" font-size="12" fill="#333">user field</text>
<path d="M 400.0 110.0 L 445.0 110.0 L 445.0 150.0 L 490.0 150.0" fill="none" stroke="#555" stroke-width="2" marker-end="url(#arrow)"/>
<text x="445.0" y="124.0" text-anchor="middle" font-family="Arial, Helvetica, sans-serif" font-size="12" fill="#333">user field</text>
<path d="M 530.0 75.0 L 555.0 75.0 L 555.0 190.0 L 580.0 190.0" fill="none" stroke="#555" stroke-width="2" marker-end="url(#arrow)"/>
<text x="555.0" y="126.5" text-anchor="middle" font-family="Arial, Helvetica, sans-serif" font-size="12" fill="#333">user field</text>
<path d="M 490.0 230.0 L 420.0 230.0 L 420.0 300.0 L 350.0 300.0" fill="none" stroke="#555" stroke-width="2" marker-end="url(#arrow)"/>
<text x="420.0" y="259.0" text-anchor="middle" font-family="Arial, Helvetica, sans-serif" font-size="12" fill="#333">multi-user field</text>
<path d="M 490.0 230.0 L 560.0 230.0 L 560.0 300.0 L 630.0 300.0" fill="none" stroke="#555" stroke-width="2" marker-end="url(#arrow)"/>
<text x="560.0" y="259.0" text-anchor="middle" font-family="Arial, Helvetica, sans-serif" font-size="12" fill="#333">multi-user field</text>
<rect x="400.0" y="150.0" width="180.0" height="80.0" rx="12" ry="12" fill="#f8cecc" stroke="#b85450" stroke-width="2" filter="url(#shadow)"/>
<text x="490.0" y="197.0" text-anchor="middle" font-family="Arial, Helvetica, sans-serif" font-size="18" font-weight="700" fill="#111">Project</text>
<rect x="90.0" y="40.0" width="180.0" height="70.0" rx="12" ry="12" fill="#dae8fc" stroke="#6c8ebf" stroke-width="2" filter="url(#shadow)"/>
<text x="180.0" y="71.0" text-anchor="middle" font-family="Arial, Helvetica, sans-serif" font-size="14" font-weight="400" fill="#111">Project Manager</text>
<text x="180.0" y="89.0" text-anchor="middle" font-family="Arial, Helvetica, sans-serif" font-size="14" font-weight="400" fill="#111">single user</text>
<rect x="310.0" y="40.0" width="180.0" height="70.0" rx="12" ry="12" fill="#dae8fc" stroke="#6c8ebf" stroke-width="2" filter="url(#shadow)"/>
<text x="400.0" y="71.0" text-anchor="middle" font-family="Arial, Helvetica, sans-serif" font-size="14" font-weight="400" fill="#111">Delivery Manager</text>
<text x="400.0" y="89.0" text-anchor="middle" font-family="Arial, Helvetica, sans-serif" font-size="14" font-weight="400" fill="#111">single user</text>
<rect x="530.0" y="40.0" width="180.0" height="70.0" rx="12" ry="12" fill="#dae8fc" stroke="#6c8ebf" stroke-width="2" filter="url(#shadow)"/>
<text x="620.0" y="71.0" text-anchor="middle" font-family="Arial, Helvetica, sans-serif" font-size="14" font-weight="400" fill="#111">QA Manager</text>
<text x="620.0" y="89.0" text-anchor="middle" font-family="Arial, Helvetica, sans-serif" font-size="14" font-weight="400" fill="#111">single user</text>
<rect x="260.0" y="300.0" width="180.0" height="70.0" rx="12" ry="12" fill="#d5e8d4" stroke="#82b366" stroke-width="2" filter="url(#shadow)"/>
<text x="350.0" y="331.0" text-anchor="middle" font-family="Arial, Helvetica, sans-serif" font-size="14" font-weight="400" fill="#111">Delivery Team</text>
<text x="350.0" y="349.0" text-anchor="middle" font-family="Arial, Helvetica, sans-serif" font-size="14" font-weight="400" fill="#111">multi-user</text>
<rect x="540.0" y="300.0" width="180.0" height="70.0" rx="12" ry="12" fill="#d5e8d4" stroke="#82b366" stroke-width="2" filter="url(#shadow)"/>
<text x="630.0" y="331.0" text-anchor="middle" font-family="Arial, Helvetica, sans-serif" font-size="14" font-weight="400" fill="#111">QA Team</text>
<text x="630.0" y="349.0" text-anchor="middle" font-family="Arial, Helvetica, sans-serif" font-size="14" font-weight="400" fill="#111">multi-user</text>
<polygon points="760.0,145.0 962.0,145.0 980.0,163.0 980.0,235.0 760.0,235.0" fill="#fff2cc" stroke="#d6b656" stroke-width="2" filter="url(#shadow)"/>
<polyline points="962.0,145.0 962.0,163.0 980.0,163.0" fill="none" stroke="#d6b656" stroke-width="2"/>
<text x="870.0" y="194.5" text-anchor="middle" font-family="Arial, Helvetica, sans-serif" font-size="13" font-weight="400" fill="#111">No project field points to a group</text>
</svg>
