<?xml version="1.0" encoding="UTF-8"?>
<svg xmlns="http://www.w3.org/2000/svg" width="1800" height="1100" viewBox="0 0 1800 1100" role="img">
<defs>
<marker id="arrow" markerWidth="10" markerHeight="10" refX="9" refY="3" orient="auto" markerUnits="strokeWidth">
<path d="M0,0 L10,3 L0,6 z" fill="#555" />
</marker>
<filter id="shadow" x="-20%" y="-20%" width="140%" height="140%"><feDropShadow dx="0" dy="1" stdDeviation="1" flood-opacity="0.15"/></filter>
</defs>
<rect width="100%" height="100%" fill="#ffffff"/>
<path d="M 190.0 175.0 L 210.0 175.0 L 210.0 175.0 L 230.0 175.0" fill="none" stroke="#555" stroke-width="2" marker-end="url(#arrow)"/>
<path d="M 340.0 175.0 L 360.0 175.0 L 360.0 175.0 L 380.0 175.0" fill="none" stroke="#555" stroke-width="2" marker-end="url(#arrow)"/>
<path d="M 490.0 175.0 L 510.0 175.0 L 510.0 175.0 L 530.0 175.0" fill="none" stroke="#555" stroke-width="2" marker-end="url(#arrow)"/>
<path d="M 590.0 517.5 L 475.0 517.5 L 475.0 517.5 L 360.0 517.5" fill="none" stroke="#555" stroke-width="2" marker-end="url(#arrow)"/>
<text x="475.0" y="511.5" text-anchor="middle" font-family="Arial, Helvetica, sans-serif" font-size="12" fill="#333">rework</text>
<path d="M 650.0 490.0 L 542.5 490.0 L 542.5 200.0 L 435.0 200.0" fill="none" stroke="#555" stroke-width="2" marker-end="url(#arrow)"/>
<text x="542.5" y="339.0" text-anchor="middle" font-family="Arial, Helvetica, sans-serif" font-size="12" fill="#333">task loop</text>
<path d="M 190.0 517.5 L 215.0 517.5 L 215.0 517.5 L 240.0 517.5" fill="none" stroke="#555" stroke-width="2" marker-end="url(#arrow)"/>
<path d="M 360.0 517.5 L 385.0 517.5 L 385.0 517.5 L 410.0 517.5" fill="none" stroke="#555" stroke-width="2" marker-end="url(#arrow)"/>
<path d="M 540.0 517.5 L 565.0 517.5 L 565.0 517.5 L 590.0 517.5" fill="none" stroke="#555" stroke-width="2" marker-end="url(#arrow)"/>
<path d="M 710.0 517.5 L 740.0 517.5 L 740.0 517.5 L 770.0 517.5" fill="none" stroke="#555" stroke-width="2" marker-end="url(#arrow)"/>
<rect x="40.0" y="80.0" width="760.0" height="260.0" rx="10" ry="10" fill="#fff" stroke="#6c8ebf" stroke-width="2"/>
<rect x="40.0" y="80.0" width="760.0" height="28.0" rx="10" ry="10" fill="#dae8fc" stroke="#6c8ebf" stroke-width="2"/>
<line x1="40.0" y1="108.0" x2="800.0" y2="108.0" stroke="#6c8ebf" stroke-width="2"/>
<text x="420.0" y="99.0" text-anchor="middle" font-family="Arial, Helvetica, sans-serif" font-size="15" font-weight="700" fill="#111">Task-Level Validation</text>
<rect x="80.0" y="150.0" width="110.0" height="50.0" rx="12" ry="12" fill="#ffffff" stroke="#6c8ebf" stroke-width="2" filter="url(#shadow)"/>
<text x="135.0" y="180.0" text-anchor="middle" font-family="Arial, Helvetica, sans-serif" font-size="14" font-weight="400" fill="#111">New</text>
<rect x="230.0" y="150.0" width="110.0" height="50.0" rx="12" ry="12" fill="#ffffff" stroke="#6c8ebf" stroke-width="2" filter="url(#shadow)"/>
<text x="285.0" y="180.0" text-anchor="middle" font-family="Arial, Helvetica, sans-serif" font-size="14" font-weight="400" fill="#111">InProgress</text>
<rect x="380.0" y="150.0" width="110.0" height="50.0" rx="12" ry="12" fill="#fff2cc" stroke="#d6b656" stroke-width="2" filter="url(#shadow)"/>
<text x="435.0" y="180.0" text-anchor="middle" font-family="Arial, Helvetica, sans-serif" font-size="14" font-weight="700" fill="#111">Self QA</text>
<rect x="530.0" y="150.0" width="110.0" height="50.0" rx="12" ry="12" fill="#d5e8d4" stroke="#82b366" stroke-width="2" filter="url(#shadow)"/>
<text x="585.0" y="180.0" text-anchor="middle" font-family="Arial, Helvetica, sans-serif" font-size="14" font-weight="700" fill="#111">Done</text>
<polygon points="80.0,230.0 272.0,230.0 290.0,248.0 290.0,300.0 80.0,300.0" fill="#fff2cc" stroke="#d6b656" stroke-width="2" filter="url(#shadow)"/>
<polyline points="272.0,230.0 272.0,248.0 290.0,248.0" fill="none" stroke="#d6b656" stroke-width="2"/>
<text x="185.0" y="270.0" text-anchor="middle" font-family="Arial, Helvetica, sans-serif" font-size="14" font-weight="400" fill="#111">Assignee remains responsible for actual completion</text>
<polygon points="320.0,230.0 522.0,230.0 540.0,248.0 540.0,300.0 320.0,300.0" fill="#fff2cc" stroke="#d6b656" stroke-width="2" filter="url(#shadow)"/>
<polyline points="522.0,230.0 522.0,248.0 540.0,248.0" fill="none" stroke="#d6b656" stroke-width="2"/>
<text x="430.0" y="270.0" text-anchor="middle" font-family="Arial, Helvetica, sans-serif" font-size="14" font-weight="400" fill="#111">QA Assignee optional reviewer only while Epic is In Progress</text>
<polygon points="570.0,230.0 742.0,230.0 760.0,248.0 760.0,300.0 570.0,300.0" fill="#fff2cc" stroke="#d6b656" stroke-width="2" filter="url(#shadow)"/>
<polyline points="742.0,230.0 742.0,248.0 760.0,248.0" fill="none" stroke="#d6b656" stroke-width="2"/>
<text x="665.0" y="270.0" text-anchor="middle" font-family="Arial, Helvetica, sans-serif" font-size="14" font-weight="400" fill="#111">Reviewer confirms readiness outside workflow; Assignee updates task status</text>
<rect x="40.0" y="400.0" width="1080.0" height="300.0" rx="10" ry="10" fill="#fff" stroke="#b85450" stroke-width="2"/>
<rect x="40.0" y="400.0" width="1080.0" height="28.0" rx="10" ry="10" fill="#f8cecc" stroke="#b85450" stroke-width="2"/>
<line x1="40.0" y1="428.0" x2="1120.0" y2="428.0" stroke="#b85450" stroke-width="2"/>
<text x="580.0" y="419.0" text-anchor="middle" font-family="Arial, Helvetica, sans-serif" font-size="15" font-weight="700" fill="#111">Epic-Level Formal QA</text>
<rect x="70.0" y="490.0" width="120.0" height="55.0" rx="12" ry="12" fill="#ffffff" stroke="#b85450" stroke-width="2" filter="url(#shadow)"/>
<text x="130.0" y="522.5" text-anchor="middle" font-family="Arial, Helvetica, sans-serif" font-size="14" font-weight="400" fill="#111">Open</text>
<rect x="240.0" y="490.0" width="120.0" height="55.0" rx="12" ry="12" fill="#ffffff" stroke="#b85450" stroke-width="2" filter="url(#shadow)"/>
<text x="300.0" y="522.5" text-anchor="middle" font-family="Arial, Helvetica, sans-serif" font-size="14" font-weight="400" fill="#111">In Progress</text>
<rect x="410.0" y="490.0" width="130.0" height="55.0" rx="12" ry="12" fill="#ffe6cc" stroke="#d79b00" stroke-width="2" filter="url(#shadow)"/>
<text x="475.0" y="522.5" text-anchor="middle" font-family="Arial, Helvetica, sans-serif" font-size="14" font-weight="700" fill="#111">Ready for QA</text>
<rect x="590.0" y="490.0" width="120.0" height="55.0" rx="12" ry="12" fill="#ffffff" stroke="#b85450" stroke-width="2" filter="url(#shadow)"/>
<text x="650.0" y="522.5" text-anchor="middle" font-family="Arial, Helvetica, sans-serif" font-size="14" font-weight="400" fill="#111">QA</text>
<rect x="770.0" y="490.0" width="120.0" height="55.0" rx="12" ry="12" fill="#d5e8d4" stroke="#82b366" stroke-width="2" filter="url(#shadow)"/>
<text x="830.0" y="522.5" text-anchor="middle" font-family="Arial, Helvetica, sans-serif" font-size="14" font-weight="700" fill="#111">Done</text>
<polygon points="400.0,580.0 612.0,580.0 630.0,598.0 630.0,660.0 400.0,660.0" fill="#fff2cc" stroke="#d6b656" stroke-width="2" filter="url(#shadow)"/>
<polyline points="612.0,580.0 612.0,598.0 630.0,598.0" fill="none" stroke="#d6b656" stroke-width="2"/>
<text x="515.0" y="625.0" text-anchor="middle" font-family="Arial, Helvetica, sans-serif" font-size="14" font-weight="400" fill="#111">QA Manager receives notification / email when Epic becomes Ready for QA</text>
<polygon points="680.0,580.0 922.0,580.0 940.0,598.0 940.0,660.0 680.0,660.0" fill="#fff2cc" stroke="#d6b656" stroke-width="2" filter="url(#shadow)"/>
<polyline points="922.0,580.0 922.0,598.0 940.0,598.0" fill="none" stroke="#d6b656" stroke-width="2"/>
<text x="810.0" y="625.0" text-anchor="middle" font-family="Arial, Helvetica, sans-serif" font-size="14" font-weight="400" fill="#111">QA team handles formal routing and may send related tasks back to Self QA</text>
</svg>
