<?xml version="1.0" encoding="UTF-8"?>
<svg xmlns="http://www.w3.org/2000/svg" width="1600" height="1000" viewBox="0 0 1600 1000" role="img">
<defs>
<marker id="arrow" markerWidth="10" markerHeight="10" refX="9" refY="3" orient="auto" markerUnits="strokeWidth">
<path d="M0,0 L10,3 L0,6 z" fill="#555" />
</marker>
<filter id="shadow" x="-20%" y="-20%" width="140%" height="140%"><feDropShadow dx="0" dy="1" stdDeviation="1" flood-opacity="0.15"/></filter>
</defs>
<rect width="100%" height="100%" fill="#ffffff"/>
<path d="M 600.0 155.0 L 650.0 155.0 L 650.0 100.0 L 700.0 100.0" fill="none" stroke="#555" stroke-width="2" marker-end="url(#arrow)"/>
<text x="650.0" y="123.5" text-anchor="middle" font-family="Arial, Helvetica, sans-serif" font-size="12" fill="#333"><tspan x="650.0" dy="0">contains</tspan></text>
<path d="M 600.0 155.0 L 650.0 155.0 L 650.0 210.0 L 700.0 210.0" fill="none" stroke="#555" stroke-width="2" marker-end="url(#arrow)"/>
<text x="650.0" y="178.5" text-anchor="middle" font-family="Arial, Helvetica, sans-serif" font-size="12" fill="#333"><tspan x="650.0" dy="0">contains</tspan></text>
<path d="M 860.0 100.0 L 920.0 100.0 L 920.0 65.0 L 980.0 65.0" fill="none" stroke="#555" stroke-width="2" marker-end="url(#arrow)"/>
<path d="M 860.0 100.0 L 920.0 100.0 L 920.0 130.0 L 980.0 130.0" fill="none" stroke="#555" stroke-width="2" marker-end="url(#arrow)"/>
<path d="M 860.0 210.0 L 920.0 210.0 L 920.0 205.0 L 980.0 205.0" fill="none" stroke="#555" stroke-width="2" marker-end="url(#arrow)"/>
<path d="M 860.0 210.0 L 920.0 210.0 L 920.0 270.0 L 980.0 270.0" fill="none" stroke="#555" stroke-width="2" marker-end="url(#arrow)"/>
<path d="M 230.0 100.0 L 325.0 100.0 L 325.0 155.0 L 420.0 155.0" fill="none" stroke="#555" stroke-width="2" marker-end="url(#arrow)"/>
<text x="325.0" y="116.5" text-anchor="middle" font-family="Arial, Helvetica, sans-serif" font-size="12" fill="#333"><tspan x="325.0" dy="0">staffing uses user /</tspan><tspan x="325.0" dy="14">multi-user fields</tspan></text>
<path d="M 230.0 190.0 L 325.0 190.0 L 325.0 155.0 L 420.0 155.0" fill="none" stroke="#555" stroke-width="2" marker-end="url(#arrow)"/>
<text x="325.0" y="161.5" text-anchor="middle" font-family="Arial, Helvetica, sans-serif" font-size="12" fill="#333"><tspan x="325.0" dy="0">permissions and</tspan><tspan x="325.0" dy="14">visibility</tspan></text>
<path d="M 510.0 310.0 L 510.0 310.0 L 510.0 190.0 L 510.0 190.0" fill="none" stroke="#555" stroke-width="2" marker-end="url(#arrow)"/>
<text x="510.0" y="246.0" text-anchor="middle" font-family="Arial, Helvetica, sans-serif" font-size="12" fill="#333"><tspan x="510.0" dy="0">automation</tspan></text>
<path d="M 600.0 155.0 L 665.0 155.0 L 665.0 367.5 L 730.0 367.5" fill="none" stroke="#555" stroke-width="2" marker-end="url(#arrow)"/>
<text x="665.0" y="257.2" text-anchor="middle" font-family="Arial, Helvetica, sans-serif" font-size="12" fill="#333"><tspan x="665.0" dy="0">management views</tspan></text>
<path d="M 600.0 155.0 L 765.0 155.0 L 765.0 367.5 L 930.0 367.5" fill="none" stroke="#555" stroke-width="2" marker-end="url(#arrow)"/>
<path d="M 600.0 155.0 L 865.0 155.0 L 865.0 367.5 L 1130.0 367.5" fill="none" stroke="#555" stroke-width="2" marker-end="url(#arrow)"/>
<rect x="420.0" y="120.0" width="180.0" height="70.0" rx="12" ry="12" fill="#dae8fc" stroke="#6c8ebf" stroke-width="2" filter="url(#shadow)"/>
<text x="510.0" y="162.0" text-anchor="middle" font-family="Arial, Helvetica, sans-serif" font-size="18" font-weight="700" fill="#111"><tspan x="510.0" dy="0">Project</tspan></text>
<rect x="700.0" y="70.0" width="160.0" height="60.0" rx="12" ry="12" fill="#d5e8d4" stroke="#82b366" stroke-width="2" filter="url(#shadow)"/>
<text x="780.0" y="106.0" text-anchor="middle" font-family="Arial, Helvetica, sans-serif" font-size="16" font-weight="700" fill="#111"><tspan x="780.0" dy="0">Epic</tspan></text>
<rect x="700.0" y="180.0" width="160.0" height="60.0" rx="12" ry="12" fill="#d5e8d4" stroke="#82b366" stroke-width="2" filter="url(#shadow)"/>
<text x="780.0" y="216.0" text-anchor="middle" font-family="Arial, Helvetica, sans-serif" font-size="16" font-weight="700" fill="#111"><tspan x="780.0" dy="0">Epic</tspan></text>
<rect x="980.0" y="40.0" width="150.0" height="50.0" rx="12" ry="12" fill="#ffe6cc" stroke="#d79b00" stroke-width="2" filter="url(#shadow)"/>
<text x="1055.0" y="70.5" text-anchor="middle" font-family="Arial, Helvetica, sans-serif" font-size="15" font-weight="400" fill="#111"><tspan x="1055.0" dy="0">Task</tspan></text>
<rect x="980.0" y="105.0" width="150.0" height="50.0" rx="12" ry="12" fill="#ffe6cc" stroke="#d79b00" stroke-width="2" filter="url(#shadow)"/>
<text x="1055.0" y="135.5" text-anchor="middle" font-family="Arial, Helvetica, sans-serif" font-size="15" font-weight="400" fill="#111"><tspan x="1055.0" dy="0">Task</tspan></text>
<rect x="980.0" y="180.0" width="150.0" height="50.0" rx="12" ry="12" fill="#ffe6cc" stroke="#d79b00" stroke-width="2" filter="url(#shadow)"/>
<text x="1055.0" y="210.5" text-anchor="middle" font-family="Arial, Helvetica, sans-serif" font-size="15" font-weight="400" fill="#111"><tspan x="1055.0" dy="0">Task</tspan></text>
<rect x="980.0" y="245.0" width="150.0" height="50.0" rx="12" ry="12" fill="#ffe6cc" stroke="#d79b00" stroke-width="2" filter="url(#shadow)"/>
<text x="1055.0" y="275.5" text-anchor="middle" font-family="Arial, Helvetica, sans-serif" font-size="15" font-weight="400" fill="#111"><tspan x="1055.0" dy="0">Task</tspan></text>
<rect x="90.0" y="70.0" width="140.0" height="60.0" rx="12" ry="12" fill="#fff2cc" stroke="#d6b656" stroke-width="2" filter="url(#shadow)"/>
<text x="160.0" y="105.0" text-anchor="middle" font-family="Arial, Helvetica, sans-serif" font-size="14" font-weight="700" fill="#111"><tspan x="160.0" dy="0">Origami Users</tspan></text>
<rect x="90.0" y="160.0" width="140.0" height="60.0" rx="12" ry="12" fill="#fff2cc" stroke="#d6b656" stroke-width="2" filter="url(#shadow)"/>
<text x="160.0" y="195.0" text-anchor="middle" font-family="Arial, Helvetica, sans-serif" font-size="14" font-weight="700" fill="#111"><tspan x="160.0" dy="0">Origami Groups</tspan></text>
<rect x="430.0" y="310.0" width="160.0" height="60.0" rx="12" ry="12" fill="#f8cecc" stroke="#b85450" stroke-width="2" filter="url(#shadow)"/>
<text x="510.0" y="336.0" text-anchor="middle" font-family="Arial, Helvetica, sans-serif" font-size="14" font-weight="700" fill="#111"><tspan x="510.0" dy="0">Origami</tspan><tspan x="510.0" dy="18">Workflows</tspan></text>
<rect x="730.0" y="340.0" width="150.0" height="55.0" rx="12" ry="12" fill="#e1d5e7" stroke="#9673a6" stroke-width="2" filter="url(#shadow)"/>
<text x="805.0" y="363.5" text-anchor="middle" font-family="Arial, Helvetica, sans-serif" font-size="14" font-weight="700" fill="#111"><tspan x="805.0" dy="0">Executive</tspan><tspan x="805.0" dy="18">Dashboard</tspan></text>
<rect x="930.0" y="340.0" width="150.0" height="55.0" rx="12" ry="12" fill="#e1d5e7" stroke="#9673a6" stroke-width="2" filter="url(#shadow)"/>
<text x="1005.0" y="363.5" text-anchor="middle" font-family="Arial, Helvetica, sans-serif" font-size="13" font-weight="700" fill="#111"><tspan x="1005.0" dy="0">Epic / Task / QA</tspan><tspan x="1005.0" dy="17">Team Boards</tspan></text>
<rect x="1130.0" y="340.0" width="150.0" height="55.0" rx="12" ry="12" fill="#e1d5e7" stroke="#9673a6" stroke-width="2" filter="url(#shadow)"/>
<text x="1205.0" y="372.5" text-anchor="middle" font-family="Arial, Helvetica, sans-serif" font-size="14" font-weight="700" fill="#111"><tspan x="1205.0" dy="0">Gantt</tspan></text>
<polygon points="70.0,270.0 272.0,270.0 290.0,288.0 290.0,360.0 70.0,360.0" fill="#fff2cc" stroke="#d6b656" stroke-width="2" filter="url(#shadow)"/>
<polyline points="272.0,270.0 272.0,288.0 290.0,288.0" fill="none" stroke="#d6b656" stroke-width="2"/>
<text x="180.0" y="312.0" text-anchor="middle" font-family="Arial, Helvetica, sans-serif" font-size="13" font-weight="400" fill="#111"><tspan x="180.0" dy="0">Origami custom fields</tspan><tspan x="180.0" dy="16">cannot point to a Group</tspan></text>
</svg>
